HIERARCHY
ROOT root
{
	OFFSET	0	13.1	24.9
	CHANNELS 6  Xposition Yposition Zposition Xrotation Yrotation Zrotation
	JOINT spine_1
	{
		OFFSET	0	9.99999	0
		CHANNELS 3  Xrotation Yrotation Zrotation
		JOINT spine_2
		{
			OFFSET	0	112	-10
			CHANNELS 3  Xrotation Yrotation Zrotation
			JOINT spine_3
			{
				OFFSET	0	206.5	19.3
				CHANNELS 3  Xrotation Yrotation Zrotation
				JOINT spine_4
				{
					OFFSET	0	110.4	14.6
					CHANNELS 3  Xrotation Yrotation Zrotation
					JOINT neck_1
					{
						OFFSET	0	71.8	-50.3
						CHANNELS 3  Xrotation Yrotation Zrotation
						JOINT neck_2
						{
							OFFSET	0	86.2	-25.8
							CHANNELS 3  Xrotation Yrotation Zrotation
							JOINT head_ee
							{
								OFFSET	0	179.8	-8.7
								CHANNELS 3  Xrotation Yrotation Zrotation
								End Site
								{
									OFFSET	1	0	0
								}
							}
						}
					}
					JOINT left_clavicle
					{
						OFFSET	-43.2	22.4	-70.8
						CHANNELS 3  Xrotation Yrotation Zrotation
						JOINT left_shoulder
						{
							OFFSET	-93.9	-5.79999	48.7
							CHANNELS 3  Xrotation Yrotation Zrotation
							JOINT left_elbow
							{
								OFFSET	-291.4	-30.8	15.2
								CHANNELS 3  Xrotation Yrotation Zrotation
								JOINT left_lowarm_twist
								{
									OFFSET	-110.7	-3.89999	13.6
									CHANNELS 3  Xrotation Yrotation Zrotation
									JOINT left_hand
									{
										OFFSET	-110.7	-3.89999	13.6
										CHANNELS 3  Xrotation Yrotation Zrotation
										JOINT left_ee
										{
											OFFSET	-80.8	-5.10001	12.1
											CHANNELS 3  Xrotation Yrotation Zrotation
											End Site
											{
												OFFSET	1	0	0
											}
										}
									}
								}
							}
						}
					}
					JOINT right_clavicle
					{
						OFFSET	43.2	22.4	-70.8
						CHANNELS 3  Xrotation Yrotation Zrotation
						JOINT right_shoulder
						{
							OFFSET	93.9	-5.79999	48.7
							CHANNELS 3  Xrotation Yrotation Zrotation
							JOINT right_elbow
							{
								OFFSET	291.4	-30.8	15.2
								CHANNELS 3  Xrotation Yrotation Zrotation
								JOINT right_lowarm_twist
								{
									OFFSET	110.7	-3.89999	13.6
									CHANNELS 3  Xrotation Yrotation Zrotation
									JOINT right_hand
									{
										OFFSET	110.7	-3.89999	13.6
										CHANNELS 3  Xrotation Yrotation Zrotation
										JOINT right_ee
										{
											OFFSET	80.8	-5.10001	12.1
											CHANNELS 3  Xrotation Yrotation Zrotation
											End Site
											{
												OFFSET	1	0	0
											}
										}
									}
								}
							}
						}
					}
				}
			}
		}
	}
	JOINT left_hip
	{
		OFFSET	-82.8	-127.5	0.300001
		CHANNELS 3  Xrotation Yrotation Zrotation
		JOINT left_knee
		{
			OFFSET	-28.2	-396.7	2.2
			CHANNELS 3  Xrotation Yrotation Zrotation
			JOINT left_ankle
			{
				OFFSET	-11.7	-411.3	35.4
				CHANNELS 3  Xrotation Yrotation Zrotation
				JOINT left_toes
				{
					OFFSET	0	-60	-88.6
					CHANNELS 3  Xrotation Yrotation Zrotation
					JOINT left_foot_ee
					{
						OFFSET	-22.5	-16.5	-42.2
						CHANNELS 3  Xrotation Yrotation Zrotation
						End Site
						{
							OFFSET	1	0	0
						}
					}
				}
			}
		}
	}
	JOINT right_hip
	{
		OFFSET	82.8	-127.5	0.300001
		CHANNELS 3  Xrotation Yrotation Zrotation
		JOINT right_knee
		{
			OFFSET	28.2	-396.7	2.2
			CHANNELS 3  Xrotation Yrotation Zrotation
			JOINT right_ankle
			{
				OFFSET	11.7	-411.3	35.4
				CHANNELS 3  Xrotation Yrotation Zrotation
				JOINT right_toes
				{
					OFFSET	0	-60	-88.6
					CHANNELS 3  Xrotation Yrotation Zrotation
					JOINT right_foot_ee
					{
						OFFSET	22.5	-16.5	-42.2
						CHANNELS 3  Xrotation Yrotation Zrotation
						End Site
						{
							OFFSET	1	0	0
						}
					}
				}
			}
		}
	}
}
MOTION
Frames: 16
Frame Time: 0.02
858.844253606 600.296 -1611.04283497 166.164717023 75.1291092452 -167.055056429 0.429067 0.129777 0.779284 0.429401 0.0799276 0.785962 0.43064 -0.0811467 0.785837 0.429781 0.043976 0.78879 -23.7453 2.60385 -2.96917 -23.7976 6.33826 -1.49536 -0.0 0.0 -0.0 1.34463 -8.11685 1.792 2.58229 -30.4694 62.2413 1.38666 -34.4838 0.430375 -39.3682 -2.88422 4.01491 3.09199 18.083 27.1895 -0.0 0.0 -0.0 8.3195 11.3405 -16.1543 -29.1369 11.6434 -67.5719 0.271163 7.6507 -0.0181312 23.8611 -0.214968 3.01851 -1.00162 24.84 17.2058 0.0 0.0 0.0 3.23102 -18.1364 4.92669 -0.327065 0.0133291 0.0484216 30.2468 -3.40965 -3.96872 -39.7408 0.0 0.0 -0.0 0.0 -0.0 16.1504 3.31641 4.38792 -55.6422 1.74825 -8.02813 41.7535 -21.1787 5.21751 -4.46011 0.0 0.0 0.0 0.0 0.0 
853.174504033 600.118 -1613.52731583 168.160735981 76.0878781962 -169.067652708 0.458346 0.253778 0.830376 0.458707 0.200426 0.844841 0.46186 0.0253907 0.867916 0.460845 0.162138 0.853016 -22.928 2.16002 -1.90431 -22.9638 5.03875 -0.753262 -0.0 0.0 -0.0 2.76296 -7.66707 4.73429 3.62537 -23.4634 59.9238 1.67669 -39.7092 0.605489 -43.9223 -3.37763 4.32792 1.765 21.0518 19.2368 -0.0 0.0 -0.0 8.20219 12.0879 -15.8736 -28.6616 11.4182 -69.1676 0.328228 9.23536 -0.0265106 23.9353 -0.213665 3.0279 -0.964914 24.6381 16.8789 0.0 0.0 0.0 2.8072 -17.9753 4.30405 1.97543 -0.0863734 -0.290806 29.6462 -4.92179 -3.92305 -40.2491 0.0 0.0 -0.0 0.0 -0.0 17.7408 2.28015 4.77816 -53.7748 1.56658 -7.80492 41.6695 -21.3694 5.21509 -5.29079 0.0 0.0 0.0 0.0 0.0 
835.840651352 600.687 -1609.43567055 172.73876328 76.4947358453 -173.392401851 0.557366 0.504496 0.828944 0.557635 0.450727 0.859364 0.564651 0.269286 0.932275 0.563676 0.413137 0.878053 -22.6328 1.63732 -0.834211 -22.653 3.5455 -0.015212 -0.0 0.0 -0.0 4.24068 -7.07983 7.79811 4.80917 -17.1172 58.0241 2.0601 -45.5763 0.865563 -49.2017 -3.97853 4.6405 0.249731 24.5549 11.2077 -0.0 0.0 -0.0 7.46059 12.7931 -14.2453 -28.9452 11.0023 -71.0947 0.457606 12.7724 -0.0512175 24.2036 -0.208855 3.06184 -0.928688 23.8012 16.3042 0.0 0.0 0.0 1.87981 -16.5069 3.42961 3.16919 -0.143421 -0.465068 28.8776 -5.84469 -3.85202 -40.0917 0.0 0.0 -0.0 0.0 -0.0 19.7705 0.971955 5.48529 -46.2132 0.908586 -6.84517 40.9811 -19.7325 5.11188 -6.11996 0.0 0.0 0.0 0.0 0.0 
830.115994173 599.238 -1609.69878091 173.845560102 77.1540723648 -174.247256942 0.591829 0.549885 0.884488 0.59213 0.492491 0.917683 0.600307 0.299139 0.997594 0.599204 0.452929 0.937839 -22.2455 1.70712 -0.276399 -22.2652 3.42427 0.522594 -0.0 0.0 -0.0 3.9626 -8.93451 7.1026 4.52541 -14.9719 57.4778 2.2181 -47.6884 0.980443 -49.6078 -4.0259 4.66224 -0.790394 24.0023 5.01729 -0.0 0.0 -0.0 6.84521 13.0768 -12.9107 -28.3382 12.7156 -73.201 0.480141 13.3793 -0.0563159 22.3553 -0.238758 2.82765 -0.783475 24.114 15.4494 0.0 0.0 0.0 1.60855 -12.7043 3.04255 3.3995 -0.154846 -0.498552 31.832 -7.02852 -4.18677 -40.0498 0.0 0.0 -0.0 0.0 -0.0 20.3516 -0.629601 5.83162 -39.9387 0.462875 -5.98971 39.8969 -15.9849 4.939 -10.3325 0.0 0.0 0.0 0.0 0.0 
815.877839302 593.854 -1603.82078044 179.376018253 77.7406521124 179.784281672 0.909801 0.868546 1.06781 0.91008 0.798842 1.12091 0.926126 0.56592 1.25471 0.924728 0.756963 1.14961 -20.7781 1.74869 0.540321 -20.7917 3.10604 1.25407 -0.0 0.0 -0.0 3.65306 -9.33619 6.43352 4.79626 -12.5369 57.1173 2.4963 -51.0303 1.19163 -50.1143 -4.08519 4.68887 -1.50919 23.2486 0.575348 -0.0 0.0 -0.0 6.4966 15.1039 -12.0414 -27.3805 16.0543 -75.122 0.464606 12.9613 -0.0527764 19.1842 -0.272412 2.42405 -0.0481547 26.1397 11.389 0.0 0.0 0.0 1.41676 -5.5537 4.33822 3.72276 -0.171107 -0.545474 35.1355 -5.1355 -4.48894 -38.3784 0.0 0.0 -0.0 0.0 -0.0 17.1123 -1.90414 5.06029 -22.8738 -0.25045 -3.47797 39.4229 -10.5766 4.82989 -14.3095 0.0 0.0 0.0 0.0 0.0 
810.149678819 595.091 -1603.31628528 -179.787823427 78.9195515264 178.631871697 0.705473 0.952839 1.21914 0.705875 0.873338 1.27729 0.725927 0.603689 1.42467 0.724035 0.821095 1.31148 -21.6843 2.09283 0.279708 -21.7086 3.90476 1.19381 -0.0 0.0 -0.0 3.22437 -9.57741 5.52801 4.75589 -12.1222 56.8826 2.52171 -51.3136 1.21143 -49.3372 -3.99431 4.64779 -1.69694 23.6156 -0.330466 -0.0 0.0 -0.0 6.06299 14.9984 -11.1173 -27.1865 17.1006 -75.7336 0.556571 15.4142 -0.0753219 18.949 -0.274018 2.39404 -0.177802 25.1779 11.8462 0.0 0.0 0.0 1.00107 -7.4928 3.41931 3.69408 -0.169654 -0.541314 33.8733 -7.16339 -4.39739 -39.4847 0.0 0.0 -0.0 0.0 -0.0 19.4791 -2.14833 5.85894 -22.6922 -0.253956 -3.45033 39.0441 -9.82784 4.79037 -14.0018 0.0 0.0 0.0 0.0 0.0 
806.225619157 593.456 -1600.99633143 -178.663485655 78.9126250282 177.284270867 0.732907 1.02107 1.30972 0.733374 0.935667 1.37203 0.756444 0.646915 1.5295 0.75426 0.880329 1.40817 -21.3124 2.26335 0.188855 -21.3411 4.27547 1.17127 -0.0 0.0 -0.0 3.39086 -9.90265 5.84702 4.65497 -10.7155 56.8068 2.59868 -52.1507 1.27186 -50.3158 -4.10885 4.69932 -2.20544 25.6927 -2.20102 -0.0 0.0 -0.0 5.96144 15.6348 -10.8556 -26.1236 17.8062 -75.6541 0.567846 15.7112 -0.0783471 18.4132 -0.277216 2.32568 -0.0887139 25.2393 11.2843 0.0 0.0 0.0 0.716991 -5.91833 3.84417 3.13338 -0.141657 -0.459858 34.3338 -7.21579 -4.44408 -39.3905 0.0 0.0 -0.0 0.0 -0.0 19.3867 -2.49525 5.96909 -22.1729 -0.263499 -3.37121 38.9084 -8.58598 4.77081 -13.8897 0.0 0.0 0.0 0.0 0.0 
762.550576231 590.834 -1565.60863006 -174.871327865 68.0247380289 172.489970949 1.05415 0.617999 2.06521 1.05639 0.485362 2.10033 1.07497 0.0736633 2.1544 1.06873 0.412909 2.11576 -14.2498 2.48193 -1.81184 -14.267 5.83649 -0.928017 -0.0 0.0 -0.0 0.983542 -2.8529 1.60237 -3.99258 -13.9266 59.3916 3.48308 -59.8901 2.00692 -50.3774 -4.11608 4.7025 -0.867634 18.9365 2.44318 -0.0 0.0 -0.0 6.8457 18.4059 -12.566 -22.2204 19.6785 -74.0033 0.479264 13.3557 -0.0561133 17.5179 -0.281131 2.2114 0.0926306 24.7335 9.88128 0.0 0.0 0.0 1.9253 -2.62464 3.50575 -3.43583 0.126137 0.512126 38.1114 -9.16726 -4.84069 -39.1289 0.0 0.0 -0.0 0.0 -0.0 15.51 -3.42571 6.19398 -17.9682 -0.314289 -2.72818 39.9061 -0.275421 4.8659 -17.5841 0.0 0.0 0.0 0.0 0.0 
762.188304755 590.834 -1566.47722738 -174.831485565 68.2023749518 172.447033993 1.05415 0.617999 2.06521 1.05639 0.485362 2.10033 1.07497 0.0736633 2.1544 1.06873 0.412909 2.11576 -14.2498 2.48193 -1.81184 -14.267 5.83649 -0.928017 -0.0 0.0 -0.0 0.983542 -2.8529 1.60237 -3.99258 -13.9266 59.3916 3.48308 -59.8901 2.00692 -50.3774 -4.11608 4.7025 -0.867634 18.9365 2.44318 -0.0 0.0 -0.0 6.8457 18.4059 -12.566 -22.2204 19.6785 -74.0033 0.479264 13.3557 -0.0561133 17.5179 -0.281131 2.2114 0.0926306 24.7335 9.88128 0.0 0.0 0.0 1.9253 -2.62464 3.50575 -3.43583 0.126137 0.512126 38.1114 -9.16726 -4.84069 -39.1289 0.0 0.0 -0.0 0.0 -0.0 15.51 -3.42571 6.19398 -17.9682 -0.314289 -2.72818 39.9061 -0.275421 4.8659 -17.5841 0.0 0.0 0.0 0.0 0.0 
761.791236412 590.834 -1567.43810312 -174.786687573 68.3986035767 172.398819373 1.05415 0.617999 2.06521 1.05639 0.485362 2.10033 1.07497 0.0736633 2.1544 1.06873 0.412909 2.11576 -14.2498 2.48193 -1.81184 -14.267 5.83649 -0.928017 -0.0 0.0 -0.0 0.983542 -2.8529 1.60237 -3.99258 -13.9266 59.3916 3.48308 -59.8901 2.00692 -50.3774 -4.11608 4.7025 -0.867634 18.9365 2.44318 -0.0 0.0 -0.0 6.8457 18.4059 -12.566 -22.2204 19.6785 -74.0033 0.479264 13.3557 -0.0561133 17.5179 -0.281131 2.2114 0.0926306 24.7335 9.88128 0.0 0.0 0.0 1.9253 -2.62464 3.50575 -3.43583 0.126137 0.512126 38.1114 -9.16726 -4.84069 -39.1289 0.0 0.0 -0.0 0.0 -0.0 15.51 -3.42571 6.19398 -17.9682 -0.314289 -2.72818 39.9061 -0.275421 4.8659 -17.5841 0.0 0.0 0.0 0.0 0.0 
761.807486738 590.834 -1567.39859411 -174.788544773 68.3905408675 172.400816918 1.05415 0.617999 2.06521 1.05639 0.485362 2.10033 1.07497 0.0736633 2.1544 1.06873 0.412909 2.11576 -14.2498 2.48193 -1.81184 -14.267 5.83649 -0.928017 -0.0 0.0 -0.0 0.983542 -2.8529 1.60237 -3.99258 -13.9266 59.3916 3.48308 -59.8901 2.00692 -50.3774 -4.11608 4.7025 -0.867634 18.9365 2.44318 -0.0 0.0 -0.0 6.8457 18.4059 -12.566 -22.2204 19.6785 -74.0033 0.479264 13.3557 -0.0561133 17.5179 -0.281131 2.2114 0.0926306 24.7335 9.88128 0.0 0.0 0.0 1.9253 -2.62464 3.50575 -3.43583 0.126137 0.512126 38.1114 -9.16726 -4.84069 -39.1289 0.0 0.0 -0.0 0.0 -0.0 15.51 -3.42571 6.19398 -17.9682 -0.314289 -2.72818 39.9061 -0.275421 4.8659 -17.5841 0.0 0.0 0.0 0.0 0.0 
760.877223674 590.834 -1569.68637925 -174.678790818 68.8566108332 172.282955717 1.05415 0.617999 2.06521 1.05639 0.485362 2.10033 1.07497 0.0736633 2.1544 1.06873 0.412909 2.11576 -14.2498 2.48193 -1.81184 -14.267 5.83649 -0.928017 -0.0 0.0 -0.0 0.983542 -2.8529 1.60237 -3.99258 -13.9266 59.3916 3.48308 -59.8901 2.00692 -50.3774 -4.11608 4.7025 -0.867634 18.9365 2.44318 -0.0 0.0 -0.0 6.8457 18.4059 -12.566 -22.2204 19.6785 -74.0033 0.479264 13.3557 -0.0561133 17.5179 -0.281131 2.2114 0.0926306 24.7335 9.88128 0.0 0.0 0.0 1.9253 -2.62464 3.50575 -3.43583 0.126137 0.512126 38.1114 -9.16726 -4.84069 -39.1289 0.0 0.0 -0.0 0.0 -0.0 15.51 -3.42571 6.19398 -17.9682 -0.314289 -2.72818 39.9061 -0.275421 4.8659 -17.5841 0.0 0.0 0.0 0.0 0.0 
744.599124539 586.454 -1539.62902714 -176.933614233 61.56511267 174.386996156 0.894895 0.771272 1.90931 0.89669 0.648239 1.95449 0.919701 0.256049 2.04317 0.914337 0.575454 1.97714 -14.4591 4.20467 1.22947 -14.4971 7.28956 2.51969 -0.0 0.0 -0.0 0.0448642 -2.07365 -0.158845 -7.32573 -15.6778 61.7321 3.17435 -57.5336 1.74303 -48.9756 -3.95222 4.62825 0.0666247 16.3292 7.07284 -0.0 0.0 -0.0 7.07535 22.0902 -12.7667 -20.8888 22.1523 -73.6129 0.567124 15.6922 -0.0781517 16.976 -0.282634 2.1422 0.336058 25.2414 8.49983 0.0 0.0 0.0 3.435 -3.25879 3.49576 -8.49278 0.2554 1.27717 39.5257 -9.52242 -4.97466 -39.3562 0.0 0.0 -0.0 0.0 -0.0 13.2126 -4.01661 5.86966 -19.2686 -0.303624 -2.92742 39.5172 5.79349 4.90218 -17.9916 0.0 0.0 0.0 0.0 0.0 
731.952693258 580.62 -1518.34147645 -177.974097481 59.6610742103 175.034907988 0.799798 0.868618 1.89204 0.80148 0.746486 1.94345 0.827807 0.351341 2.05198 0.822558 0.670942 1.9708 -11.6896 4.56463 3.88901 -11.6665 6.12289 5.00054 -0.0 0.0 -0.0 -1.15835 -4.87073 -2.90899 -10.9898 -15.3185 66.029 2.5563 -51.6936 1.2385 -44.2924 -3.41879 4.35162 0.364823 16.9262 9.14421 -0.0 0.0 -0.0 7.73108 25.0788 -13.9263 -20.9383 27.7748 -71.5284 0.597995 16.501 -0.086711 16.9579 -0.282672 2.13989 -0.0859286 24.7675 11.0711 0.0 0.0 0.0 3.94587 -3.94365 3.00128 -11.2999 0.297864 1.70578 40.3134 -8.81483 -5.02746 -35.5429 0.0 0.0 -0.0 0.0 -0.0 11.2154 -2.26296 5.66043 -19.2568 -0.303741 -2.92562 31.6529 15.1937 4.35353 -21.4454 0.0 0.0 0.0 0.0 0.0 
728.694864043 580.62 -1524.63883672 -177.901092089 60.8201670325 174.95081609 0.799798 0.868618 1.89204 0.80148 0.746486 1.94345 0.827807 0.351341 2.05198 0.822558 0.670942 1.9708 -11.6896 4.56463 3.88901 -11.6665 6.12289 5.00054 -0.0 0.0 -0.0 -1.15835 -4.87073 -2.90899 -10.9898 -15.3185 66.029 2.5563 -51.6936 1.2385 -44.2924 -3.41879 4.35162 0.364823 16.9262 9.14421 -0.0 0.0 -0.0 7.73108 25.0788 -13.9263 -20.9383 27.7748 -71.5284 0.597995 16.501 -0.086711 16.9579 -0.282672 2.13989 -0.0859286 24.7675 11.0711 0.0 0.0 0.0 3.94587 -3.94365 3.00128 -11.2999 0.297864 1.70578 40.3134 -8.81483 -5.02746 -35.5429 0.0 0.0 -0.0 0.0 -0.0 11.2154 -2.26296 5.66043 -19.2568 -0.303741 -2.92562 31.6529 15.1937 4.35353 -21.4454 0.0 0.0 0.0 0.0 0.0 
725.276829376 580.62 -1531.60375905 -177.813865633 62.0884480828 174.851524761 0.799798 0.868618 1.89204 0.80148 0.746486 1.94345 0.827807 0.351341 2.05198 0.822558 0.670942 1.9708 -11.6896 4.56463 3.88901 -11.6665 6.12289 5.00054 -0.0 0.0 -0.0 -1.15835 -4.87073 -2.90899 -10.9898 -15.3185 66.029 2.5563 -51.6936 1.2385 -44.2924 -3.41879 4.35162 0.364823 16.9262 9.14421 -0.0 0.0 -0.0 7.73108 25.0788 -13.9263 -20.9383 27.7748 -71.5284 0.597995 16.501 -0.086711 16.9579 -0.282672 2.13989 -0.0859286 24.7675 11.0711 0.0 0.0 0.0 3.94587 -3.94365 3.00128 -11.2999 0.297864 1.70578 40.3134 -8.81483 -5.02746 -35.5429 0.0 0.0 -0.0 0.0 -0.0 11.2154 -2.26296 5.66043 -19.2568 -0.303741 -2.92562 31.6529 15.1937 4.35353 -21.4454 0.0 0.0 0.0 0.0 0.0 
